<svg xmlns="http://www.w3.org/2000/svg" xmlns:xlink="http://www.w3.org/1999/xlink" width="2083" height="2083" viewBox="0 0 2083 2083">
  <defs>
    <style>
      .cls-1, .cls-2 {
        fill: #222831;
        fill-rule: evenodd;
      }

      .cls-1 {
        filter: url(#filter);
      }

      .cls-2 {
        filter: url(#filter-2);
      }
    </style>
    <filter id="filter" x="3.375" y="3.219" width="2076.375" height="2076.901" filterUnits="userSpaceOnUse">
      <feFlood result="flood" flood-color="#222831"/>
      <feComposite result="composite" operator="in" in2="SourceGraphic"/>
      <feBlend result="blend" in2="SourceGraphic"/>
    </filter>
    <filter id="filter-2" x="494" y="289" width="1045" height="1503" filterUnits="userSpaceOnUse">
      <feGaussianBlur result="blur" stdDeviation="13.333" in="SourceAlpha"/>
      <feComposite result="composite"/>
      <feComposite result="composite-2"/>
      <feComposite result="composite-3"/>
      <feFlood result="flood" flood-color="#08d9d6"/>
      <feComposite result="composite-4" operator="in" in2="composite-3"/>
      <feBlend result="blend" in2="SourceGraphic"/>
      <feBlend result="blend-2" in="SourceGraphic"/>
      <feFlood result="flood-2" flood-color="#00adb5"/>
      <feComposite result="composite-5" operator="in" in2="SourceGraphic"/>
      <feBlend result="blend-3" in2="blend-2"/>
    </filter>
  </defs>
  <path class="cls-1" d="M999,4h56c9.2,0,21.51-1.116,29,1,5.77,1.63,14.85-.458,20,1l28,1c11.39,3.268,26.83,1.785,38,5h8c6.1,1.786,14.89,2.218,21,4h7l76,15v1h4c4.71,1.611,11.29,3.393,16,5l8,1v1l11,2v1l7,1v1h3v1l10,2v1h4v1h3v1h3v1h3v1h3v1h4v1h3v1h3v1h3v1h3v1h3v1l6,1v1h2v1h3v1h3v1h3v1h3v1h2v1l6,1v1h2v1l6,1v1h2v1l6,1v1l5,1v1h2v1h3v1h2v1h3v1l4,1v1h3v1h2v1h3v1l4,1v1h3v1h2v1l4,1v1h3v1h2v1h2v1h2v1h3v1h2v1h2v1h2v1l6,2v1h3v1h2v1l4,1v1l4,1v1h2v1h2v1h2v1h2v1l4,1v1l4,1v1h2v1h2v1h2v1h2v1l4,1c0.33,0.667.67,1.333,1,2h2v1h2v1h2v1h2v1h2v1h2c0.33,0.667.67,1.333,1,2l4,1v1h2v1h2c0.33,0.667.67,1.333,1,2h2v1h2v1h2v1h2c0.33,0.667.67,1.333,1,2h2v1h2c0.33,0.667.67,1.333,1,2l6,2c0.33,0.667.67,1.333,1,2l4,1c0.33,0.667.67,1.333,1,2l4,1c0.33,0.667.67,1.333,1,2l4,1c0.33,0.667.67,1.333,1,2h2c0.33,0.667.67,1.333,1,2l4,1v1l3,1c0.33,0.667.67,1.333,1,2l4,1c0.33,0.667.67,1.333,1,2h2c0.33,0.666.67,1.333,1,2h2c0.33,0.667.67,1.333,1,2h2c0.33,0.667.67,1.333,1,2l4,1v1l3,1c0.33,0.667.67,1.333,1,2h2c0.33,0.667.67,1.333,1,2h2c0.67,1,1.33,2,2,3h2c0.33,0.667.67,1.333,1,2h2v1l3,1c0.33,0.666.67,1.333,1,2h2c0.67,1,1.33,2,2,3h2v1l3,1c0.33,0.667.67,1.333,1,2h2c0.33,0.667.67,1.333,1,2l3,1c0.67,1,1.33,2,2,3h2c0.33,0.667.67,1.333,1,2h2c0.67,1,1.33,2,2,3h2c0.67,1,1.33,2,2,3h2c0.67,1,1.33,2,2,3h2c0.67,1,1.33,2,2,3h2l3,4h2c0.67,1,1.33,2,2,3h2l3,4h2l3,4h2l3,4h2l3,4h2c1.33,1.666,2.67,3.333,4,5h2c1.33,1.666,2.67,3.333,4,5h2c1.67,2,3.33,4,5,6h2c0.67,1,1.33,2,2,3,1.33,1,2.67,2,4,3v1h2q3.495,4,7,8c11.68,8.455,20.95,18.95,31,29l12,10c0.33,1,.67,2,1,3q11.505,11,23,22v2q5.505,5,11,10v2q4.005,3.5,8,7v2q3.495,3,7,6v2l6,5v2c0.67,0.333,1.33.667,2,1,0.67,1,1.33,2,2,3h1v2c1.67,1.333,3.33,2.667,5,4v2c0.67,0.333,1.33.667,2,1v1c0.67,0.333,1.33.667,2,1v2c1.33,1,2.67,2,4,3v2c1.33,1,2.67,2,4,3v2c0.67,0.333,1.33.667,2,1v1c0.67,0.333,1.33.667,2,1v2c0.67,0.333,1.33.667,2,1,0.33,1,.67,2,1,3,1.33,1,2.67,2,4,3v2l3,2v2l3,2v2l3,2c0.33,1,.67,2,1,3,0.67,0.333,1.33.667,2,1v2c0.67,0.333,1.33.667,2,1v2c0.67,0.333,1.33.667,2,1,0.33,1,.67,2,1,3l3,2v2h1c0.33,1,.67,2,1,3,0.67,0.333,1.33.667,2,1v2l3,2v2c0.67,0.333,1.33.667,2,1,0.33,1,.67,2,1,3h1v2c0.67,0.333,1.33.667,2,1v2c0.67,0.333,1.33.667,2,1v2l3,2v2c0.67,0.333,1.33.667,2,1,0.33,1,.67,2,1,3h1c0.33,1.333.67,2.667,1,4,0.67,0.333,1.33.667,2,1v2c0.67,0.333,1.33.667,2,1v2c0.67,0.333,1.33.667,2,1v2c0.67,0.333,1.33.667,2,1,0.33,1.333.67,2.667,1,4h1c0.33,1,.67,2,1,3,0.67,0.333,1.33.667,2,1,0.33,1.333.67,2.667,1,4h1c0.33,1,.67,2,1,3,0.67,0.333,1.33.667,2,1,0.33,1.333.67,2.667,1,4,0.67,0.333,1.33.667,2,1,0.33,1.333.67,2.667,1,4,0.67,0.333,1.33.667,2,1,0.33,1.333.67,2.667,1,4,0.67,0.333,1.33.667,2,1,0.67,2,1.33,4,2,6,0.67,0.333,1.33.667,2,1v2h1v2c0.67,0.333,1.33.667,2,1,0.33,1.333.67,2.667,1,4h1v2h1v2c0.67,0.333,1.33.667,2,1v2h1v2h1v2h1v2c0.67,0.333,1.33.667,2,1v2h1v2h1v2h1v2h1v2h1v2c0.67,0.333,1.33.667,2,1,0.33,1.333.67,2.667,1,4h1v2h1v2h1v2h1v2h1c0.33,1.333.67,2.667,1,4h1c0.33,1.333.67,2.667,1,4h1c0.67,2,1.33,4,2,6h1v2h1v2h1v2h1c0.67,2,1.33,4,2,6h1v3h1v2h1v2h1v2h1c0.67,2,1.33,4,2,6h1v3h1v2h1c0.33,1.333.67,2.667,1,4h1v3h1v2h1c0.33,1.333.67,2.667,1,4h1v3h1v2h1v3h1c0.33,1.333.67,2.667,1,4h1v3h1c0.33,1.333.67,2.667,1,4h1v3h1v2h1v3h1v2h1c0.33,1.666.67,3.333,1,5h1c0.33,2,.67,4,1,6h1v2h1c0.33,2,.67,4,1,6h1v2h1v3h1v3c8.52,19.48,14.55,42.356,22,63v4h1v3h1v4c4.67,12.94,7.69,28.613,12,42q7.5,38,15,76,0.495,7,1,14c2.59,8.878,2.42,20.983,5,30v9h1v10h1v11h1v13h1q0.495,17.5,1,35h1v57c0,8.91,1.03,20.79-1,28v11q-0.495,12-1,24h-1q-1.005,16.995-2,34h-1v9h-1v8h-1v8q-6.495,38.49-13,77h-1q-1.005,7.005-2,14c-4.53,13.94-7.17,30.51-12,44-0.33,2.67-.67,5.33-1,8h-1q-1.5,7.005-3,14h-1c-0.67,3.33-1.33,6.67-2,10h-1v3h-1v3h-1v3h-1v3h-1v4h-1v3h-1v3h-1v3h-1v3h-1v3h-1c-0.33,2-.67,4-1,6h-1v2h-1v3h-1v3h-1v3h-1v3h-1v2h-1c-0.33,2-.67,4-1,6h-1v2h-1c-0.33,2-.67,4-1,6h-1v2h-1v3h-1v2h-1c-0.33,2-.67,4-1,6h-1c-0.33,1.67-.67,3.33-1,5h-1v2h-1v3h-1c-0.33,1.33-.67,2.67-1,4h-1v3h-1v2h-1v3h-1c-0.33,1.33-.67,2.67-1,4h-1v3h-1v2h-1c-0.33,1.33-.67,2.67-1,4h-1v3h-1v2h-1c-0.33,1.33-.67,2.67-1,4h-1v3h-1v2h-1v2h-1v2h-1c-0.67,2-1.33,4-2,6h-1v3h-1c-0.67,2-1.33,4-2,6h-1v2h-1v2h-1v2h-1v2h-1c-0.33,1.33-.67,2.67-1,4h-1c-0.33,1.33-.67,2.67-1,4h-1c-0.33,1.33-.67,2.67-1,4h-1v2h-1v2h-1v2h-1v2h-1c-0.33,1.33-.67,2.67-1,4-0.67.33-1.33,0.67-2,1v2h-1v2h-1v2h-1v2h-1v2h-1v2c-0.67.33-1.33,0.67-2,1v2h-1v2h-1v2h-1v2c-0.67.33-1.33,0.67-2,1v2h-1v2h-1v2h-1v2c-0.67.33-1.33,0.67-2,1-0.33,1.33-.67,2.67-1,4-0.67.33-1.33,0.67-2,1-0.67,2-1.33,4-2,6-0.67.33-1.33,0.67-2,1-0.33,1.33-.67,2.67-1,4-0.67.33-1.33,0.67-2,1-0.33,1.33-.67,2.67-1,4-0.67.33-1.33,0.67-2,1-0.33,1.33-.67,2.67-1,4-0.67.33-1.33,0.67-2,1v2c-0.67.33-1.33,0.67-2,1-0.33,1.33-.67,2.67-1,4h-1c-0.33,1-.67,2-1,3-0.67.33-1.33,0.67-2,1-0.33,1.33-.67,2.67-1,4-0.67.33-1.33,0.67-2,1v2h-1c-0.33,1-.67,2-1,3-0.67.33-1.33,0.67-2,1v2c-0.67.33-1.33,0.67-2,1-0.33,1-.67,2-1,3h-1c-0.33,1.33-.67,2.67-1,4-0.67.33-1.33,0.67-2,1v2c-1,.67-2,1.33-3,2v2c-0.67.33-1.33,0.67-2,1-0.33,1-.67,2-1,3h-1v2c-0.67.33-1.33,0.67-2,1v2c-0.67.33-1.33,0.67-2,1v2c-1,.67-2,1.33-3,2v2h-1c-0.33,1-.67,2-1,3-0.67.33-1.33,0.67-2,1v2c-0.67.33-1.33,0.67-2,1-0.33,1-.67,2-1,3-1,.67-2,1.33-3,2v2c-0.67.33-1.33,0.67-2,1v2c-0.67.33-1.33,0.67-2,1-0.33,1-.67,2-1,3-1,.67-2,1.33-3,2v2c-1,.67-2,1.33-3,2v2c-1,.67-2,1.33-3,2v2c-1.33,1-2.67,2-4,3-0.33,1-.67,2-1,3-0.67.33-1.33,0.67-2,1v2c-0.67.33-1.33,0.67-2,1v1c-0.67.33-1.33,0.67-2,1v2c-1.33,1-2.67,2-4,3v2c-0.67.33-1.33,0.67-2,1v1c-0.67.33-1.33,0.67-2,1v2c-1.33,1-2.67,2-4,3v2c-1.67,1.33-3.33,2.67-5,4v2c-1.67,1.33-3.33,2.67-5,4v2c-2,1.67-4,3.33-6,5v2q-3.495,3-7,6v2c-1.33,1-2.67,2-4,3-1,1.33-2,2.67-3,4h-1v2q-5.505,4.995-11,10v2c-2,1.67-4,3.33-6,5q-6.495,7.005-13,14-3.495,3-7,6v2q-4.005,3-8,6c-6.99,6.96-12.85,14.1-21,20q-4.5,4.995-9,10c-1,.33-2,0.67-3,1q-3.495,4.005-7,8h-2q-3,3.495-6,7h-2c-1.67,2-3.33,4-5,6h-2c-0.33.67-.67,1.33-1,2-1,.67-2,1.33-3,2v1h-2c-1.33,1.67-2.67,3.33-4,5h-2c-0.33.67-.67,1.33-1,2h-1c-0.33.67-.67,1.33-1,2h-2c-1,1.33-2,2.67-3,4h-2c-1,1.33-2,2.67-3,4h-2c-0.33.67-.67,1.33-1,2h-1c-0.33.67-.67,1.33-1,2h-2c-0.33.67-.67,1.33-1,2-1,.33-2,0.67-3,1-1,1.33-2,2.67-3,4h-2c-0.67,1-1.33,2-2,3h-2c-0.67,1-1.33,2-2,3h-2c-0.67,1-1.33,2-2,3-1,.33-2,0.67-3,1-0.33.67-.67,1.33-1,2h-2c-0.33.67-.67,1.33-1,2h-2c-0.67,1-1.33,2-2,3h-2c-0.67,1-1.33,2-2,3h-2v1c-1,.33-2,0.67-3,1-0.33.67-.67,1.33-1,2h-2c-0.67,1-1.33,2-2,3h-2c-0.33.67-.67,1.33-1,2-1,.33-2,0.67-3,1v1h-2c-0.33.67-.67,1.33-1,2h-2c-0.33.67-.67,1.33-1,2h-2c-0.67,1-1.33,2-2,3h-2c-0.33.67-.67,1.33-1,2-1.33.33-2.67,0.67-4,1-0.33.67-.67,1.33-1,2h-2v1c-1,.33-2,0.67-3,1-0.33.67-.67,1.33-1,2h-2c-0.33.67-.67,1.33-1,2-1,.33-2,0.67-3,1v1c-1.33.33-2.67,0.67-4,1v1c-1,.33-2,0.67-3,1-0.33.67-.67,1.33-1,2-1.33.33-2.67,0.67-4,1v1c-1,.33-2,0.67-3,1-0.33.67-.67,1.33-1,2-1.33.33-2.67,0.67-4,1-0.33.67-.67,1.33-1,2-1.33.33-2.67,0.67-4,1-0.33.67-.67,1.33-1,2-1.33.33-2.67,0.67-4,1-0.33.67-.67,1.33-1,2-1.33.33-2.67,0.67-4,1v1h-2c-0.33.67-.67,1.33-1,2-1.33.33-2.67,0.67-4,1-0.33.67-.67,1.33-1,2h-2v1h-2v1h-2v1h-2c-0.33.67-.67,1.33-1,2-1.33.33-2.67,0.67-4,1v1h-2v1h-2c-0.33.67-.67,1.33-1,2h-2v1h-2v1h-2v1h-2v1c-1.33.33-2.67,0.67-4,1-0.33.67-.67,1.33-1,2-1.33.33-2.67,0.67-4,1v1h-2v1h-2v1h-2v1h-2v1h-2v1c-1.33.33-2.67,0.67-4,1v1c-1.33.33-2.67,0.67-4,1v1h-2v1h-2v1h-2v1h-2v1h-2v1c-1.33.33-2.67,0.67-4,1v1h-2v1h-3v1h-2v1h-2v1c-2,.67-4,1.33-6,2v1h-3v1h-2v1c-2,.67-4,1.33-6,2v1h-3v1h-2v1c-1.33.33-2.67,0.67-4,1v1h-3v1h-2v1h-3v1c-1.33.33-2.67,0.67-4,1v1h-3v1c-1.33.33-2.67,0.67-4,1v1h-3v1h-2v1h-3v1h-2v1c-1.67.33-3.33,0.67-5,1v1c-2,.33-4,0.67-6,1v1h-2v1c-2,.33-4,0.67-6,1v1h-2v1c-2,.33-4,0.67-6,1v1h-2v1h-3v1h-3v1h-3v1h-3v1h-2v1c-2,.33-4,0.67-6,1v1h-3v1h-3v1h-3v1h-3v1h-3v1h-4v1h-3v1h-3v1h-3v1h-3v1c-3.33.67-6.67,1.33-10,2v1l-14,3v1q-5.505,1.005-11,2v1c-2.67.33-5.33,0.67-8,1-4.71,1.61-11.29,3.4-16,5h-4v1h-5c-12.86,4.16-28.76,5.98-42,10h-6c-11.1,3.37-25.55,3.66-37,7q-7.005.495-14,1v1q-7.995.495-16,1v1h-9v1h-10v1h-11v1h-13v1h-15v1c-5.76,1.63-14.85-.45-20,1h-43c-12.5,0-31.58,1.94-42-1-5.773-1.63-14.844.46-20-1H964v-1H951v-1H940v-1l-35-3c-6.1-1.79-14.895-2.22-21-4h-7v-1h-6v-1h-6v-1h-6c-10.845-3.33-24.454-4.61-35-8-3.333-.33-6.667-0.67-10-1v-1h-4v-1h-4v-1h-5v-1h-4v-1h-4v-1c-2.666-.33-5.334-0.67-8-1-18.242-6.25-38.629-10.13-56-17-2.333-.33-4.667-0.67-7-1v-1h-3v-1h-3v-1h-3v-1h-3v-1h-3v-1c-2-.33-4-0.67-6-1v-1h-2v-1h-3v-1h-3v-1h-3v-1h-3v-1h-2v-1c-2-.33-4-0.67-6-1v-1h-2v-1h-3v-1h-3v-1h-2v-1c-2-.33-4-0.67-6-1v-1h-2v-1h-3v-1c-1.667-.33-3.334-0.67-5-1v-1h-2v-1h-3v-1c-1.333-.33-2.667-0.67-4-1v-1h-3v-1h-2v-1h-3v-1c-1.333-.33-2.667-0.67-4-1v-1h-3v-1h-2v-1c-1.333-.33-2.667-0.67-4-1v-1h-3v-1h-2v-1h-2v-1h-2v-1h-3v-1h-2v-1h-2v-1h-2v-1c-2-.67-4-1.33-6-2v-1h-3v-1h-2v-1c-1.333-.33-2.667-0.67-4-1v-1c-1.333-.33-2.667-0.67-4-1v-1c-1.333-.33-2.667-0.67-4-1v-1h-2v-1h-2v-1h-2v-1h-2v-1h-2v-1h-2v-1h-2v-1h-2v-1h-2v-1h-2v-1h-2v-1h-2c-0.333-.67-0.667-1.33-1-2h-2v-1h-2v-1h-2v-1h-2v-1c-1.333-.33-2.667-0.67-4-1-0.333-.67-0.667-1.33-1-2-1.333-.33-2.667-0.67-4-1v-1h-2v-1h-2c-0.333-.67-0.667-1.33-1-2h-2v-1h-2v-1h-2v-1h-2c-0.333-.67-0.667-1.33-1-2h-2v-1h-2c-0.333-.67-0.667-1.33-1-2-2-.67-4-1.33-6-2-0.333-.67-0.667-1.33-1-2-1.333-.33-2.667-0.67-4-1-0.333-.67-0.667-1.33-1-2-1.333-.33-2.667-0.67-4-1-0.333-.67-0.667-1.33-1-2-1.333-.33-2.667-0.67-4-1v-1c-1-.33-2-0.67-3-1-0.333-.67-0.667-1.33-1-2-1.333-.33-2.667-0.67-4-1-0.333-.67-0.667-1.33-1-2h-2c-0.333-.67-0.667-1.33-1-2-1.333-.33-2.667-0.67-4-1-0.333-.67-0.667-1.33-1-2h-2c-0.333-.67-0.667-1.33-1-2h-2c-0.333-.67-0.667-1.33-1-2h-2c-0.333-.67-0.667-1.33-1-2-1.333-.33-2.667-0.67-4-1-0.333-.67-0.667-1.33-1-2h-2c-0.333-.67-0.667-1.33-1-2h-2l-2-3h-2c-0.333-.67-0.667-1.33-1-2-1-.33-2-0.67-3-1v-1h-2c-0.333-.67-0.667-1.33-1-2h-2c-0.333-.67-0.667-1.33-1-2h-2l-2-3h-2v-1c-1-.33-2-0.67-3-1-0.333-.67-0.667-1.33-1-2h-2c-0.333-.67-0.667-1.33-1-2-1-.33-2-0.67-3-1l-2-3h-2c-0.333-.67-0.667-1.33-1-2h-2l-2-3h-2l-2-3h-2l-2-3h-2l-2-3h-2c-1-1.33-2-2.67-3-4h-2l-2-3h-2c-1-1.33-2-2.67-3-4h-2c-1-1.33-2-2.67-3-4h-2c-1-1.33-2-2.67-3-4h-2c-1-1.33-2-2.67-3-4h-2c-0.333-.67-0.667-1.33-1-2-1-.67-2-1.33-3-2v-1h-2c-1.333-1.67-2.667-3.33-4-5h-2l-2-3c-1-.67-2-1.33-3-2v-1h-2q-3-3.495-6-7h-2c-1-1.33-2-2.67-3-4l-4-3v-1h-2q-5-5.505-10-11h-2l-20-21q-4.5-3.495-9-7v-2c-0.667-.33-1.333-0.67-2-1v-1l-22-21v-2q-5.5-4.995-11-10v-2q-4-3.495-8-7v-2h-1c-1-1.33-2-2.67-3-4-1-.67-2-1.33-3-2v-2c-2-1.67-4-3.33-6-5v-2c-0.667-.33-1.333-0.67-2-1v-1c-1-.67-2-1.33-3-2v-2c-1.667-1.33-3.334-2.67-5-4v-2c-0.667-.33-1.333-0.67-2-1v-1c-0.667-.33-1.334-0.67-2-1v-2c-0.667-.33-1.333-0.67-2-1v-1c-0.667-.33-1.333-0.67-2-1v-2l-4-3v-2l-4-3v-2c-0.667-.33-1.334-0.67-2-1l-1-3-4-3v-2c-1-.67-2-1.33-3-2v-2c-1-.67-2-1.33-3-2v-2c-1-.67-2-1.33-3-2l-1-3c-0.667-.33-1.334-0.67-2-1v-2c-0.667-.33-1.333-0.67-2-1v-2c-0.667-.33-1.333-0.67-2-1l-1-3c-1-.67-2-1.33-3-2v-2h-1l-1-3c-0.667-.33-1.333-0.67-2-1v-2c-1-.67-2-1.33-3-2v-2c-0.667-.33-1.334-0.67-2-1v-2h-1l-1-3c-0.667-.33-1.333-0.67-2-1v-2c-1-.67-2-1.33-3-2v-2c-0.667-.33-1.333-0.67-2-1l-1-3h-1v-2c-0.667-.33-1.333-0.67-2-1-0.333-1.33-.667-2.67-1-4-0.667-.33-1.333-0.67-2-1v-2c-0.667-.33-1.333-0.67-2-1v-2c-0.667-.33-1.334-0.67-2-1v-2c-0.667-.33-1.333-0.67-2-1-0.333-1.33-.667-2.67-1-4h-1l-1-3c-0.667-.33-1.333-0.67-2-1-0.333-1.33-.667-2.67-1-4h-1l-1-3c-0.667-.33-1.333-0.67-2-1-0.333-1.33-.667-2.67-1-4-0.667-.33-1.333-0.67-2-1-0.333-1.33-.667-2.67-1-4-0.667-.33-1.333-0.67-2-1-0.333-1.33-.667-2.67-1-4-0.667-.33-1.333-0.67-2-1l-2-6c-0.667-.33-1.333-0.67-2-1-0.333-1.33-.667-2.67-1-4-0.667-.33-1.333-0.67-2-1v-2h-1v-2h-1v-2h-1v-2c-0.667-.33-1.333-0.67-2-1v-2h-1v-2h-1v-2h-1v-2c-0.667-.33-1.333-0.67-2-1v-2h-1v-2h-1v-2h-1v-2h-1c-0.333-1.33-.667-2.67-1-4-0.667-.33-1.333-0.67-2-1v-2h-1v-2h-1v-2h-1v-2h-1v-2h-1v-2h-1v-2h-1c-0.333-1.33-.667-2.67-1-4h-1c-0.333-1.33-.667-2.67-1-4h-1v-2h-1v-2h-1v-2h-1v-2h-1v-2h-1c-0.333-1.33-.667-2.67-1-4h-1v-2h-1v-3h-1v-2h-1v-2h-1v-2H99l-2-6H96v-3H95v-2H94c-0.333-1.33-.667-2.67-1-4H92v-3H91v-2H90c-0.333-1.33-.667-2.67-1-4H88v-3H87c-0.333-1.33-.667-2.67-1-4H85v-3H84v-2H83v-3H82c-0.333-1.33-.667-2.67-1-4H80v-3H79v-2H78c-0.333-1.67-.667-3.33-1-5H76v-3H75v-2H74l-1-6H72v-2H71l-1-6H69v-2H68l-1-6H66v-2H65v-3H64v-3H63v-3H62v-3H61v-2H60v-3H59v-3H58v-3H57v-3H56v-3H55v-3H54v-3H53c-0.667-3.33-1.333-6.67-2-10H50v-3H49v-3H48c-0.667-3.33-1.333-6.67-2-10H45v-4H44v-3H43v-4c-4.221-11.7-6.92-25.97-11-38l-1-9c-4.163-12.86-5.985-28.76-10-42v-6H20v-5H19v-6H18q-1.5-13.005-3-26c-3.394-11.65-2.609-27.1-6-39v-10H8v-11c-0.383-1.36-.769.4-1-1v-12H6v-15c-1.444-5.16.614-14.21-1-20-1.62-5.81-1-15.56-1-23v-40c0-7.14-.556-16.48,1-22V988l1-24H7l1-24H9V930h1v-9h1v-8h1v-8c3-10.264,2.97-23.859,6-34q0.5-6,1-12c1.379-4.494,2.6-11.514,4-16v-5c4.942-15.648,6.841-33.855,12-49v-4h1v-4h1v-4h1v-4h1l2-11h1l1-7h1v-3h1l2-10h1v-4h1v-3h1l3-13h1v-3h1v-3h1v-3h1v-3h1l2-9h1v-2h1v-3h1v-3h1v-3h1v-3h1v-2h1l1-6h1v-2h1v-3h1v-3h1v-2h1l1-6h1v-2h1v-3h1l1-5h1v-2h1v-3h1l1-4h1v-3h1v-2h1v-3h1l1-4h1v-3h1v-2h1l1-4h1v-3h1v-2h1l1-4h1v-3h1l2-6h1v-2h1q0.5-2.5,1-5h1v-2h1l1-4h1l1-4h1v-2h1v-2h1v-2h1v-2h1l1-4h1l1-4h1v-2h1v-2h1v-2h1v-2h1v-2h1l1-4,2-1,2-6h1v-2h1v-2h1v-2l2-1v-2h1v-2h1v-2h1v-2l2-1v-2h1v-2h1v-2h1v-2l2-1v-2h1v-2l2-1,2-6,2-1q0.5-2,1-4l2-1q0.5-2,1-4l2-1q0.5-2,1-4h1l1-3,2-1q0.5-2,1-4h1l1-3,2-1q0.5-2,1-4l2-1v-2l2-1v-2l2-1v-2l2-1q0.5-2,1-4h1l1-3,2-1v-2l2-1v-2l3-2v-2l2-1v-2h1l1-3,2-1v-2l3-2v-2h1l1-3,2-1v-2l2-1,1-3,3-2v-2l2-1v-2l2-1,1-3,3-2v-2l3-2v-2l3-2v-2l4-3,1-3,2-1v-2l2-1v-1l2-1v-2l4-3v-2l2-1v-1l2-1v-2l4-3v-2l2-1,2-3h1v-2l5-4v-2l6-5v-2l7-6v-2l8-7c7.63-10.539,16.936-18.937,26-28l14-16h2l13-14,7-6,2-3,3-1,9-10h2l7-8h2l6-7h2l5-6h2l4-5h2l4-5h2l1-2h1l1-2h2l3-4h2l3-4h2l1-2h1l1-2h2l1-2,3-1,3-4h2l2-3h2q1-1.5,2-3h2l2-3,3-1,1-2h2l1-2h2l1-2,3-1,2-3h2v-1l3-1,1-2h2l2-3h2l1-2h2v-1l3-1,1-2h2l2-3h2l1-2h2l1-2,3-1v-1l4-1,1-2h2l1-2h2l1-2h2l1-2,4-1v-1l3-1,1-2,4-1v-1l3-1,1-2,4-1,1-2,4-1,1-2,4-1q0.5-1,1-2l4-1q0.5-1,1-2l6-2q0.5-1,1-2h2v-1h2v-1h2v-1h2q0.5-1,1-2h2v-1h2v-1h2v-1h2q0.5-1,1-2l6-2v-1h2v-1h2v-1h2q0.5-1,1-2l16-7v-1l4-1v-1l4-1v-1h2v-1h2v-1h2v-1h2v-1l4-1v-1h2v-1l5-1v-1h2v-1h2V99l6-2V96h3V95h2V94l4-1V92h3V91h2V90l4-1V88h3V87l4-1V85h3V84h2V83h3V82l4-1V80h3V79h2V78l5-1V76h3V75h2V74l6-1V72h2V71l6-1V69h2V68h3V67h3V66h2V65h3V64h3V63h3V62h3V61h2V60l6-1V58h3V57h3V56h3V55h3V54h3V53h4V52h3V51h3V50h3V49h3V48l10-2V45l14-3V41l8-1V39h3V38h4V37h4V36h4V35l8-1V33l8-1V31l76-15h7c11-3.25,25.777-2.785,37-6h9V9h10V8h11V7h13V6l24-1C991.533,5,997.067,5.707,999,4Z"/>
  <path class="cls-2" d="M766,559v2h-2l-35,40v2l-2,1v2l-3,2v2l-2,1v2l-3,2v2h-1q-0.5,1.5-1,3l-2,1v2l-3,2v2l-2,1v2l-2,1q-0.5,1.5-1,3h-1v2h-1v2l-2,1v2h-1v2h-1v2h-1v2l-2,1q-0.5,2-1,4l-2,1v3l-2,1q-0.5,2-1,4l-2,1q-0.5,2-1,4l-2,1v3h-1v2h-1q-1,3-2,6h-1v3h-1q-0.5,2-1,4h-1v3l-2,1v3h-1q-0.5,2-1,4h-1v3h-1q-0.5,2-1,4h-1q-0.5,2.5-1,5h-1v4h-1v2h-1v3h-1v3h-1v3h-1v3h-1v3h-1v2h-1q-1,4.5-2,9h-1q-1,6-2,12h-1v4h-1v4h-1v5h-1v3h-1q-0.5,4.5-1,9h-1v3h-1v8h-1v5h-1q-0.5,8-1,16h-1v5h-1v9h-1v15h-1v19h-1c-1.377,4.882.025,18.542,1,22v11c0,6.9.532,12.838,2,18v13h1v6h1v7h1v6h1v4h1v8h1v3h1q0.5,4.5,1,9h1v3h1v5h1v4h1v3h1v4h1v2h1q0.5,3.5,1,7h1v2h1v4h1v3h1c0.333,1.67.667,3.33,1,5h1v2h1v3h1c0.333,1.33.667,2.67,1,4h1v3h1v2h1v3h1q1,3,2,6h1v2h1v2h1v3c0.667,0.33,1.333.67,2,1v3h1v2c0.667,0.33,1.333.67,2,1v3c0.667,0.33,1.333.67,2,1,0.333,1.33.667,2.67,1,4,0.667,0.33,1.333.67,2,1v3c0.667,0.33,1.333.67,2,1,0.333,1.33.667,2.67,1,4,0.667,0.33,1.333.67,2,1,0.333,1.33.667,2.67,1,4,0.667,0.33,1.333.67,2,1v2c0.666,0.33,1.333.67,2,1v2h1q0.5,1.5,1,3c0.667,0.33,1.333.67,2,1v2h1q0.5,1.5,1,3c0.667,0.33,1.333.67,2,1v2c1,0.67,2,1.33,3,2v2c0.667,0.33,1.333.67,2,1v2c0.667,0.33,1.333.67,2,1v2c0.666,0.33,1.333.67,2,1v2h1q0.5,1.5,1,3c0.667,0.33,1.333.67,2,1v2l4,3v2c1.666,1.33,3.333,2.67,5,4v2c1.666,1.33,3.333,2.67,5,4v2l4,3v2c1.666,1.33,3.333,2.67,5,4v2c1.666,1.33,3.333,2.67,5,4v2q6,5.505,12,11v2q7.5,7.005,15,14v2c1,0.67,2,1.33,3,2l5,6q32.5,31.995,65,64v2l7,6v2l7,6v2l7,6v2q4,3.495,8,7v2c1.666,1.33,3.333,2.67,5,4v2c1,0.67,2,1.33,3,2v2c1,0.67,2,1.33,3,2v2c1,0.67,2,1.33,3,2v2c1,0.67,2,1.33,3,2v2c0.667,0.33,1.333.67,2,1v2c0.667,0.33,1.333.67,2,1q0.5,1.5,1,3h1v2h1v2c0.666,0.33,1.333.67,2,1v2c0.667,0.33,1.333.67,2,1,0.333,1.33.667,2.67,1,4,0.667,0.33,1.333.67,2,1q0.5,1.5,1,3h1c0.333,1.67.667,3.33,1,5,0.667,0.33,1.333.67,2,1q1,3,2,6h1v2h1v2h1q1,3,2,6h1q0.5,3,1,6h1v2h1v4h1v2h1c1.182,2.35.717,6.82,3,8h239q1.995-6,4-12h1v-3h1v-2h1v-4c0.67-.33,1.33-0.67,2-1v-3h1v-2h1v-2h1v-2h1v-2h1c0.33-1.33.67-2.67,1-4,0.67-.33,1.33-0.67,2-1,0.33-1.67.67-3.33,1-5,0.67-.33,1.33-0.67,2-1,0.33-1.33.67-2.67,1-4,0.67-.33,1.33-0.67,2-1v-2c0.67-.33,1.33-0.67,2-1,0.33-1.33.67-2.67,1-4h1c0.33-1,.67-2,1-3,0.67-.33,1.33-0.67,2-1,0.33-1.33.67-2.67,1-4,0.67-.33,1.33-0.67,2-1v-2c1-.67,2-1.33,3-2v-2c0.67-.33,1.33-0.67,2-1,0.33-1,.67-2,1-3,1.33-1,2.67-2,4-3v-2c0.67-.33,1.33-0.67,2-1v-2c1-.67,2-1.33,3-2v-2q4.005-3.495,8-7v-2q4.005-3.495,8-7c13.36-18.43,30.12-33.12,46-49,6-6,11-13,17-19,18.75-18.77,39.28-36.26,55-58q4.005-3.495,8-7v-2c1.67-1.33,3.33-2.67,5-4v-2c1-.67,2-1.33,3-2v-2c1-.67,2-1.33,3-2v-2c1.33-1,2.67-2,4-3v-2c1-.67,2-1.33,3-2v-2c1-.67,2-1.33,3-2v-2c1.33-1,2.67-2,4-3v-2c1.33-1,2.67-2,4-3q3-3.495,6-7h2c0.33-.67.67-1.33,1-2h2c0.33-.67.67-1.33,1-2,2-.67,4-1.33,6-2v-1h2v-1h5v-1h3v-1c5.2-1.62,22.85.75,26,2v1h2v1c1.67,0.33,3.33.67,5,1,0.33,0.67.67,1.33,1,2,1.33,0.33,2.67.67,4,1,0.67,1,1.33,2,2,3h2c1.67,2,3.33,4,5,6,0.67,0.33,1.33.67,2,1v2c0.67,0.33,1.33.67,2,1v2c0.67,0.33,1.33.67,2,1v2c0.67,0.33,1.33.67,2,1v3c0.67,0.33,1.33.67,2,1v3h1v3h1v3h1q0.495,11.505,1,23h-1v7h-1v2h-1v3h-1v3h-1c-0.33,1.33-.67,2.67-1,4h-1v2c-0.67.33-1.33,0.67-2,1-0.33,1.33-.67,2.67-1,4-0.67.33-1.33,0.67-2,1-0.33,1-.67,2-1,3-1,.67-2,1.33-3,2v2c-0.67.33-1.33,0.67-2,1v1c-0.67.33-1.33,0.67-2,1v2c-1.33,1-2.67,2-4,3v2c-1,.67-2,1.33-3,2v2c-1,.67-2,1.33-3,2v2c-1.33,1-2.67,2-4,3v2c-1.33,1-2.67,2-4,3v2c-2,1.67-4,3.33-6,5v2q-3.495,3-7,6v2c-1,.67-2,1.33-3,2-1,1.33-2,2.67-3,4h-1v2c-0.67.33-1.33,0.67-2,1-2.48,2.62-8.03,7.52-9,11-2.76.72-2.24,0.28-3,3h-2c-1.21,4.47-5.16,6.16-8,9q-7.995,8.505-16,17c-2.84,2.84-6.77,4.53-8,9h-2c-1.38,5.07-6.71,7.71-10,11q-12,12.495-24,25c-3.53,3.53-9.52,6.62-11,12h-2c-1.16,4.47-5.19,6.16-8,9-0.67,1-1.33,2-2,3h-1v2q-4.005,3.495-8,7v2c-1.33,1-2.67,2-4,3v2c-0.67.33-1.33,0.67-2,1-0.33,1-.67,2-1,3-1.67,1.33-3.33,2.67-5,4v2c-0.67.33-1.33,0.67-2,1v2c-0.67.33-1.33,0.67-2,1v2c-0.67.33-1.33,0.67-2,1v2c-0.67.33-1.33,0.67-2,1v2c-0.67.33-1.33,0.67-2,1v2c-0.67.33-1.33,0.67-2,1-0.67,2-1.33,4-2,6h-1v2h-1v2h-1c-0.67,2-1.33,4-2,6h-1c-0.33,2.33-.67,4.67-1,7h-1v2h-1c-0.33,2.67-.67,5.33-1,8h-1v7c-2.79,9.7-1,25.47-1,37v104q-0.495,24.99-1,50h-1v5h-1v9h-1v4h-1c-0.33,2.67-.67,5.33-1,8h-1v3h-1c-0.33,2.33-.67,4.67-1,7h-1v2h-1v4h-1c-0.33,1.67-.67,3.33-1,5h-1c-0.33,1.33-.67,2.67-1,4h-1v3c-0.67.33-1.33,0.67-2,1-0.33,1.67-.67,3.33-1,5-0.67.33-1.33,0.67-2,1v2h-1v2h-1v2h-1v2c-0.67.33-1.33,0.67-2,1-0.33,1.33-.67,2.67-1,4-0.67.33-1.33,0.67-2,1v2c-1,.67-2,1.33-3,2v2c-0.67.33-1.33,0.67-2,1v2c-1,.67-2,1.33-3,2v2c-2,1.67-4,3.33-6,5v2q-4.995,4.5-10,9c-1.67,2-3.33,4-5,6h-2c-0.33.67-.67,1.33-1,2-1,.33-2,0.67-3,1-1,1.33-2,2.67-3,4h-2c-0.33.67-.67,1.33-1,2h-2c-0.67,1-1.33,2-2,3-1.33.33-2.67,0.67-4,1-0.33.67-.67,1.33-1,2h-2c-0.33.67-.67,1.33-1,2-1.33.33-2.67,0.67-4,1v1h-2v1c-2,.67-4,1.33-6,2v1h-3c-0.33.67-.67,1.33-1,2-2,.33-4,0.67-6,1v1h-2v1h-3v1h-3v1h-3v1h-5v1h-3v1h-3v1h-8v1h-3v1h-2v1H969v-1c-1.333-.33-2.667-0.67-4-1v-1q-6-.495-12-1v-1c-2.666-.33-5.334-0.67-8-1v-1h-3v-1h-3v-1h-3v-1h-2v-1h-3v-1c-1.333-.33-2.667-0.67-4-1v-1c-1.667-.33-3.334-0.67-5-1-0.333-.67-0.667-1.33-1-2h-3c-0.333-.67-0.667-1.33-1-2-2-.67-4-1.33-6-2v-1c-1-.33-2-0.67-3-1-0.333-.67-0.667-1.33-1-2-1.333-.33-2.667-0.67-4-1-0.333-.67-0.667-1.33-1-2h-2l-2-3h-2l-2-3c-1-.33-2-0.67-3-1v-1c-2.563-2.15-4.385-4.98-8-6v-2c-5.078-1.45-5.09-4.79-8-8-1.667-1.33-3.334-2.67-5-4v-2c-0.667-.33-1.334-0.67-2-1v-1c-1-.67-2-1.33-3-2v-2c-0.667-.33-1.333-0.67-2-1v-2c-1-.67-2-1.33-3-2v-2c-0.667-.33-1.333-0.67-2-1v-2h-1v-2c-0.667-.33-1.333-0.67-2-1-0.333-1.33-.667-2.67-1-4-0.667-.33-1.333-0.67-2-1q-1-3-2-6h-1q-1-3-2-6h-1v-3c-0.667-.33-1.333-0.67-2-1q-0.5-3-1-6h-1v-2h-1v-4h-1v-2h-1l-1-7h-1v-3h-1v-5h-1v-4h-1v-5h-1v-8h-1v-6h-1V1482c0-30.6,3.423-75.84-7-96h-1v-2h-1v-2h-1v-2h-1v-2h-1v-2h-1c-0.333-1.33-.667-2.67-1-4-0.667-.33-1.333-0.67-2-1-0.333-1.33-.667-2.67-1-4-0.667-.33-1.333-0.67-2-1v-2h-1q-0.5-1.5-1-3c-0.667-.33-1.333-0.67-2-1v-2c-0.667-.33-1.333-0.67-2-1q-0.5-1.5-1-3c-1-.67-2-1.33-3-2v-2l-4-3v-2l-4-3v-2c-1.667-1.33-3.334-2.67-5-4v-2l-10-9v-2q-12-11.505-24-23v-2c-2-1.67-4-3.33-6-5q-6-6.495-12-13-19.5-19.005-39-38v-2q-4-3.495-8-7c-1-1.33-2-2.67-3-4-0.667-.33-1.333-0.67-2-1v-2l-13-12v-2c-2-1.67-4-3.33-6-5v-2l-4-3v-2l-4-3v-2c-1.667-1.33-3.334-2.67-5-4v-2l-4-3v-2l-4-3v-2c-1.667-1.33-3.334-2.67-5-4v-2c-0.667-.33-1.334-0.67-2-1v-1c-0.667-.33-1.333-0.67-2-1v-2c-1-.67-2-1.33-3-2v-2h-1q-0.5-1.5-1-3c-0.667-.33-1.333-0.67-2-1v-2c-1-.67-2-1.33-3-2v-2c-0.667-.33-1.334-0.67-2-1v-2c-1-.67-2-1.33-3-2v-2c-0.667-.33-1.333-0.67-2-1q-0.5-1.5-1-3h-1c-0.333-1.33-.667-2.67-1-4-0.667-.33-1.333-0.67-2-1v-2c-0.667-.33-1.333-0.67-2-1q-0.5-1.5-1-3h-1c-0.333-1.33-.667-2.67-1-4h-1q-0.5-1.5-1-3c-0.667-.33-1.333-0.67-2-1v-2h-1v-2c-0.667-.33-1.333-0.67-2-1q-1-3-2-6c-0.667-.33-1.333-0.67-2-1v-2h-1v-2h-1v-2h-1v-2c-0.667-.33-1.334-0.67-2-1v-2h-1v-2h-1v-2h-1v-2h-1c-0.333-1.33-.667-2.67-1-4h-1v-2h-1v-2h-1v-2h-1v-2h-1c-0.333-1.33-.667-2.67-1-4h-1c-0.333-1.67-.667-3.33-1-5-0.667-.33-1.333-0.67-2-1v-3h-1c-0.333-1.33-.667-2.67-1-4h-1v-3h-1c-0.333-1.33-.667-2.67-1-4h-1v-3h-1v-2h-1q-0.5-3-1-6h-1v-2h-1v-3h-1v-2h-1q-0.5-3-1-6h-1l-1-7h-1v-2h-1l-1-7h-1v-2h-1v-4h-1v-3h-1v-3h-1q-1-6-2-12h-1v-5h-1v-3h-1v-5h-1v-3h-1v-4h-1v-8h-1q-1-8-2-16h-1v-5h-1V936h-1v-7h-1v-9c-3.615-12.886-3-29.734-3-46,0-14.819-1.358-33.108,2-45V811h1v-7h1v-5h1V789h1v-5h1v-7h1v-9h1v-5h1v-6h1v-4h1v-3h1v-6h1v-3h1v-4h1v-5h1v-3h1l3-18h1v-2h1v-4h1v-2h1v-3h1v-4h1v-2h1v-3h1v-3h1v-3h1v-3h1q1-4.5,2-9h1v-2h1q0.5-3.5,1-7h1q0.5-2.5,1-5h1q0.5-2,1-4h1v-3l2-1v-3h1q0.5-2,1-4h1v-3l2-1v-3h1q0.5-2,1-4h1v-3l2-1v-3h1q0.5-2,1-4h1v-3h1q0.5-2,1-4h1v-2l2-1q0.5-2,1-4l2-1v-3l2-1q0.5-2,1-4l2-1v-2h1v-2h1v-2h1v-2l2-1v-2h1v-2l2-1v-2h1v-2h1v-2h1v-2l2-1v-2h1v-2l2-1v-2l2-1v-2l3-2v-2l2-1v-2l3-2v-2l2-1v-2l3-2v-2h1q0.5-1.5,1-3l2-1v-2l3-2v-2h1q0.5-1.5,1-3l2-1v-2l2-1v-1l2-1v-2l5-4v-2l6-5v-2l7-6v-2l7-6v-2l5-4v-2l3-2,7-8h2q0.5-1,1-2h1l17-18,3-1,9-10h2q0.5-1,1-2l3-1,3-4h2l3-4h2l2-3h2l3-4h2l3-4h2l2-3h2l2-3h2q0.5-1,1-2l3-1v-1h2q0.5-1,1-2h2q0.5-1,1-2h2q0.5-1,1-2l4-1v-1l3-1q0.5-1,1-2h2v-1h2q0.5-1,1-2l4-1q0.5-1,1-2h2q0.5-1,1-2h2q0.5-1,1-2h2q0.5-1,1-2l4-1q0.5-1,1-2h3q0.5-1,1-2h3v-1h2q0.5-1,1-2h3v-1h2q0.5-1,1-2h3v-1l4-1v-1l4-1v-1l4-1v-1h2v-1h2v-1h2v-1h2v-1l4-1v-1h2v-1h4v-1l4-1v-1h4v-1h2v-1l6-1v-1h2v-1l5-1v-1l6-1v-1h2v-1l6-1v-1h2v-1l8-1c14.171-5.063,31.356-8.568,46-13h9v-1h6v-1h5v-1h9v-1h5v-1h6v-1h13v-1h10a46.545,46.545,0,0,1,14-2h31v1h2c0.33,0.667.67,1.333,1,2h4v1h2v1l6,2c0.33,0.667.67,1.333,1,2h2v1h2q3.495,4,7,8l3,2v2l3,2c0.33,1.333.67,2.667,1,4,0.67,0.333,1.33.667,2,1v3h1c0.33,1.333.67,2.667,1,4h1v5h1v3h1v6h1v11h-1v7h-1v3h-1v5h-1c-0.67,2-1.33,4-2,6h-1c-0.33,1.333-.67,2.667-1,4-0.67.333-1.33,0.667-2,1v2c-1.33,1-2.67,2-4,3v2c-1.33,1-2.67,2-4,3v1h-2l-3,4-4,1c-0.33.666-.67,1.333-1,2q-8.505,3-17,6l-52,2v1h-9v1h-4v1h-7v1h-7v1h-5v1h-7v1l-12,2v1h-3v1h-3v1h-5v1h-3v1l-17,4v1h-2v1h-4v1l-4,1v1h-4v1l-4,1v1l-16,5v1h-2q-0.5,1-1,2h-3v1h-2q-0.5,1-1,2h-3q-0.5,1-1,2l-5,1q-0.5,1-1,2h-3v1h-2q-0.5,1-1,2h-3q-0.5,1-1,2l-6,2q-0.5,1-1,2h-2q-0.5,1-1,2l-4,1v1l-3,1q-0.5,1-1,2l-4,1q-0.5,1-1,2l-4,1q-0.5,1-1,2h-2l-2,3-4,1q-0.5,1-1,2h-2l-2,3h-2q-0.5,1-1,2h-1q-0.5,1-1,2h-2l-3,4h-2l-2,3h-2l-2,3h-2l-4,5h-2l-2,3c-2.161,1.537-4.072,2.077-6,4C779.081,546.907,771.251,557.536,766,559Zm239,96c-2.6.674-3.26,1.576-5,3v1h-2q-0.5,1-1,2h-2q-0.5,1-1,2h-2v1h-3q-0.5,1-1,2h-3v1l-4,1v1h-3v1l-4,1v1h-3v1l-4,1v1h-3v1h-2v1l-9,3q-0.5,1-1,2l-4,1-2,3h-2q-0.5,1-1,2l-4,1q-0.5,1-1,2l-4,1v1l-3,1q-0.5,1-1,2h-2l-3,4h-1q-0.5,1-1,2h-2l-8,9h-2l-7,8-3,2v2l-5,4v2l-5,4v2l-4,3v2l-3,2v2h-1v2l-2,1q-0.5,2-1,4l-2,1q-0.5,2-1,4l-2,1q-1,3-2,6l-2,1q-0.5,2-1,4h-1q-0.5,2-1,4h-1v3h-1v2h-1v3h-1q-0.5,2-1,4h-1v3h-1v2h-1q-0.5,3-1,6h-1v2h-1q-0.5,3.5-1,7h-1v3h-1v6h-1v3h-1v5h-1v5h-1v3h-1v11h-1v11h-1v14h-1v11h-1v3h-1v5h-1v2h-1v3h-1q-1,3-2,6l-2,1v2l-3,2v2l-6,5-2,3h-2l-2,3-4,1q-0.5,1-1,2h-3q-0.5,1-1,2h-5v1h-2v1l-18,1-18-6q-0.5-1-1-2l-4-1-3-4h-2q-0.5-1-1-2l-4-3v-2l-3-2v-2l-2-1-3-9-2-1v-4h-1v-4h-1v-6h-1c-1.8-6.4.761-20.6,1-26q1-14.5,2-29h1q0.5-6,1-12h1v-4h1v-5h1v-7h1v-2h1v-5h1v-4h1v-2h1q1-6,2-12h1v-3h1v-2h1v-4h1v-2h1q0.5-3,1-6h1v-2h1q0.5-3,1-6h1v-2h1v-3h1q1-3,2-6h1v-2h1v-3h1q1-3,2-6h1v-2h1q0.5-2,1-4l2-1v-3l2-1v-2h1v-2h1v-2h1v-2h1v-2l2-1v-2l2-1q0.5-1.5,1-3h1q0.5-2,1-4l2-1v-2h1q0.5-1.5,1-3l2-1v-2l2-1v-2l3-2v-2l4-3v-2l3-2v-2l3-2v-2l8-7v-2l7-6v-2h1l3-4h2v-2h2l13-14h2l4-5h2l3-4h2l3-4h2l2-3h2q0.5-1,1-2h2v-1l3-1q0.5-1,1-2h2l2-3h2q0.5-1,1-2l4-1q0.5-1,1-2l4-1q0.5-1,1-2h3q0.5-1,1-2l4-1q0.5-1,1-2l4-1v-1h2v-1l6-2v-1h3v-1h2q0.5-1,1-2h3v-1l4-1v-1l30-10h17v1h3v1h5v1l4,1v1h3q0.5,1,1,2h2l2,3h2c0.67,1,1.33,2,2,3l3,1v2c0.67,0.333,1.33.667,2,1v1c1.33,1,2.67,2,4,3v2c0.67,0.333,1.33.667,2,1,0.33,1.333.67,2.667,1,4,0.67,0.333,1.33.667,2,1v4h1c0.33,1.333.67,2.667,1,4h1v5h1v4h1v18h-1v4h-1v5h-1c-0.33,1.333-.67,2.667-1,4h-1v4c-0.67.333-1.33,0.667-2,1v2c-0.67.333-1.33,0.667-2,1v2h-1v2h-1C1008.09,650.342,1005.93,651.691,1005,655Zm193,374c-1-.33-2-0.67-3-1v-1h-3c-0.33-.67-0.67-1.33-1-2h-3v-1c-1.33-.33-2.67-0.67-4-1v-1c-1.33-.33-2.67-0.67-4-1-0.33-.67-0.67-1.33-1-2-1.33-.33-2.67-0.67-4-1-0.33-.67-0.67-1.33-1-2-3.86-2.55-6.73-3.81-13-4v1c-2,.33-4,0.67-6,1v1h-3v1h-4v1h-2v1h-4v1h-3v1h-3v1h-3v1h-3v1h-3v1h-3v1h-3v1h-3v1h-5c-2.03.62-8.75,2.89-12,2v-1h-6v-1h-5v-1h-2v-1h-3v-1h-2v-1h-2c-0.33-.67-0.67-1.33-1-2h-2c-0.67-1-1.33-2-2-3h-2c-0.67-1-1.33-2-2-3h-1v-2c-1.33-1-2.67-2-4-3v-2c-0.67-.33-1.33-0.67-2-1-0.33-1-.67-2-1-3h-1c-0.33-1.33-.67-2.67-1-4-0.67-.333-1.33-0.667-2-1v-2c-0.67-.333-1.33-0.667-2-1v-2c-0.67-.333-1.33-0.667-2-1v-2c-0.67-.333-1.33-0.667-2-1v-2c-0.67-.333-1.33-0.667-2-1v-2c-0.67-.333-1.33-0.667-2-1-0.33-1-.67-2-1-3h-1v-2c-3.83-6.788-6.07-9.889-6-21v-6h1c0.33-2,.67-4,1-6h1c0.33-1.333.67-2.667,1-4h1v-2c0.67-.333,1.33-0.667,2-1v-2l6-5c0.67-1,1.33-2,2-3h2c0.67-1,1.33-2,2-3h2c0.67-1,1.33-2,2-3h2c0.33-.667.67-1.333,1-2h2c0.67-1,1.33-2,2-3h2c0.67-1,1.33-2,2-3h2c0.33-.667.67-1.333,1-2h2c0.67-1,1.33-2,2-3h2c0.67-1,1.33-2,2-3h2c0.33-.667.67-1.334,1-2h2c0.67-1,1.33-2,2-3h2c0.33-.667.67-1.333,1-2h1V880c-1.27-.665-1.37-1.581-2-2h-2c-0.33-.667-0.67-1.333-1-2h-2c-0.33-.667-0.67-1.333-1-2l-4-1c-0.33-.667-0.67-1.334-1-2h-2c-0.33-.667-0.67-1.333-1-2l-4-1c-0.33-.667-0.67-1.333-1-2h-2c-0.33-.667-0.67-1.333-1-2l-4-1v-1l-3-1c-0.33-.667-0.67-1.333-1-2l-4-1c-0.33-.667-0.67-1.333-1-2h-2c-0.33-.667-0.67-1.334-1-2h-2v-1c-1.76-1.439-2.41-2.269-5-3-0.85-2.94-2.31-3.963-4-6h-1c-2.43-3.463-4.72-9.662-6-14-2.53-8.583,2.65-22.6,5-27h1v-2h1c0.33-1.333.67-2.667,1-4,0.67-.333,1.33-0.667,2-1,0.67-2,1.33-4,2-6h1v-2c0.67-.333,1.33-0.667,2-1v-2h1v-2h1v-2h1v-2h1v-2c0.67-.333,1.33-0.667,2-1,0.67-2,1.33-4,2-6,0.67-.333,1.33-0.667,2-1v-2c1.33-1,2.67-2,4-3,1.33-1.667,2.67-3.334,4-5h2c0.33-.667.67-1.333,1-2l4-1c0.33-.667.67-1.333,1-2h3v-1h2v-1h4v-1h5v-1l16,1v1h5v1l7,1v1h3v1l7,1v1l7,1v1l7,1v1h4v1h3l9,3v-1l3-1v-1h2c0.33-.667.67-1.333,1-2l4-1c0.33-.667.67-1.333,1-2h2c0.33-.667.67-1.333,1-2l6-2c4.78-2.558,9.85-5.605,15-8a72.872,72.872,0,0,1,3-18v-8h1v-5h1v-8h1v-5h1v-5h1v-2h1v-3h1v-2h1v-2l3-2v-2c0.67-.333,1.33-0.667,2-1,1.33-1.667,2.67-3.334,4-5h2c0.33-.667.67-1.333,1-2h2c0.33-.667.67-1.333,1-2h2v-1h3v-1h2v-1l6-1v-1h59v1l6,1v1h2v1c1.67,0.333,3.33.667,5,1v1l3,1c0.33,0.667.67,1.333,1,2h2c1.33,1.666,2.67,3.333,4,5,0.67,0.333,1.33.667,2,1v2l3,2v2h1v2h1v3h1v2h1v5h1v4h1c0.33,3.333.67,6.667,1,10h1c0.33,3.333.67,6.667,1,10h1v6h1v5h1c1.13,3.686-.28,6.5,2,9,1.78,1.954,1.89.856,4,2v1h2v1h3c0.33,0.667.67,1.333,1,2l4,1v1h2c0.33,0.667.67,1.333,1,2h2v1h2v1h2c0.33,0.667.67,1.333,1,2h2v1h2c0.33,0.667.67,1.333,1,2h2v1c2.09-.827,5.13-2.27,7-3h3v-1h4v-1h2v-1h4v-1h2v-1h4v-1h2v-1h4v-1h2v-1h4v-1h2v-1h4v-1h2v-1h4c4.01-1.433,14.11-4.941,21-3v1h6v1l6,1c0.33,0.667.67,1.333,1,2h3c0.33,0.667.67,1.333,1,2h2c0.33,0.667.67,1.333,1,2h2c1.33,1.666,2.67,3.333,4,5l3,2v2c0.67,0.333,1.33.667,2,1,0.33,1,.67,2,1,3h1c0.33,1.333.67,2.667,1,4,0.67,0.333,1.33.667,2,1,0.67,2,1.33,4,2,6,0.67,0.333,1.33.667,2,1,0.33,1.333.67,2.667,1,4,0.67,0.333,1.33.667,2,1,0.33,1.333.67,2.667,1,4,0.67,0.333,1.33.667,2,1,0.33,1.333.67,2.667,1,4,0.67,0.333,1.33.667,2,1,0.33,1.333.67,2.667,1,4h1c0.33,1.333.67,2.667,1,4h1v3h1v2c0.67,0.333,1.33.667,2,1v16c-3.64,2.383-1.41,2.47-3,6h-1v2l-9,12h-2l-3,4h-2c-0.33.666-.67,1.333-1,2h-2c-0.67,1-1.33,2-2,3h-2c-0.33.667-.67,1.333-1,2h-2v1l-3,1c-0.33.667-.67,1.333-1,2h-2c-0.67,1-1.33,2-2,3h-2v1l-3,1c-0.33.667-.67,1.333-1,2h-2c-0.67,1-1.33,2-2,3h-2c-0.33.667-.67,1.333-1,2h-2c-0.33.666-.67,1.333-1,2h-2c-0.67,1-1.33,2-2,3h-1v17l3,2v1h2c0.33,0.667.67,1.333,1,2h2c0.33,0.667.67,1.333,1,2h2c0.33,0.667.67,1.333,1,2h2v1l3,1c0.33,0.667.67,1.333,1,2h2c0.33,0.667.67,1.333,1,2h2c0.33,0.666.67,1.333,1,2h2c0.33,0.667.67,1.333,1,2h2c0.33,0.667.67,1.333,1,2h2c0.33,0.667.67,1.333,1,2l4,1c0.33,0.667.67,1.333,1,2h2c0.67,1,1.33,2,2,3h2c1.67,2,3.33,4,5,6,0.67,0.333,1.33.667,2,1v2c0.67,0.333,1.33.667,2,1v2h1c0.33,1.333.67,2.667,1,4h1v3h1v2c0.67,0.333,1.33.667,2,1v15h-1c-0.33,1.333-.67,2.667-1,4h-1v3h-1v2h-1c-0.67,2-1.33,4-2,6-0.67.333-1.33,0.667-2,1v2h-1v2h-1v2h-1c-0.33,1.333-.67,2.667-1,4-0.67.333-1.33,0.667-2,1v2h-1v2h-1v2h-1v2c-0.67.333-1.33,0.667-2,1-0.33,1.333-.67,2.667-1,4l-9,12h-2c-0.67,1-1.33,2-2,3h-2c-0.33.67-.67,1.33-1,2-1.33.33-2.67,0.67-4,1v1h-2v1h-4v1h-3v1h-8v1q-7.995-1-16-2v-1h-4v-1c-2.33-.33-4.67-0.67-7-1v-1l-15-3v-1h-4v-1c-2.67-.33-5.33-0.67-8-1v-1h-3v-1h-4v-1c-2.05-.23-1.18.45-2,1-1,.33-2,0.67-3,1v1h-2c-0.33.67-.67,1.33-1,2h-2c-0.33.67-.67,1.33-1,2h-2c-0.33.67-.67,1.33-1,2h-2c-0.33.67-.67,1.33-1,2h-2c-0.33.67-.67,1.33-1,2h-2v1h-2v1h-2v1h-2v1h-2c-3.13,1.53-8.13,3.1-10,6-2.27,2.52-.87,5.3-2,9h-1v7h-1v4h-1v7h-1v5h-1v7h-1v4h-1c-0.33,2.67-.67,5.33-1,8h-1c-0.33,1.33-.67,2.67-1,4h-1v2c-0.67.33-1.33,0.67-2,1v2c-1.67,1.33-3.33,2.67-5,4-1,1.33-2,2.67-3,4-7.11,5.02-19.05,8.92-31,9-24.89.16-47.51,1.25-62-9-1.33-1.67-2.67-3.33-4-5-1.33-1-2.67-2-4-3v-2c-0.67-.33-1.33-0.67-2-1-0.33-1.33-.67-2.67-1-4h-1v-3h-1v-2h-1v-5h-1v-4h-1c-0.33-3.33-.67-6.67-1-10h-1v-6h-1Q1200.005,1041,1198,1029Zm63-219c-2.73,2.311-9.94.739-14,2l-18,6v1h-2v1h-2c-0.33.666-.67,1.333-1,2l-6,2c-0.67,1-1.33,2-2,3h-2c-0.67,1-1.33,2-2,3h-2l-3,4q-3.495,3-7,6v2l-3,2v2c-0.67.333-1.33,0.667-2,1v2c-0.67.333-1.33,0.667-2,1-0.33,1.333-.67,2.667-1,4h-1c-0.67,2-1.33,4-2,6h-1v3h-1v2h-1v4h-1v3h-1v6h-1c-1.25,4.442.14,16,1,19v7h1c0.33,2,.67,4,1,6h1v2h1v4h1v2h1v2c0.67,0.333,1.33.667,2,1v3h1c0.33,1,.67,2,1,3,0.67,0.333,1.33.667,2,1v2l3,2v2c1.67,1.333,3.33,2.667,5,4q3.495,4,7,8h2l3,4,4,1c0.33,0.667.67,1.333,1,2l4,1v1h2v1l6,2v1h3v1h2v1h4v1h3v1h7v1h4v1h23v-1h5v-1h6v-1h3v-1h4v-1h2v-1h3v-1l6-2v-1h2v-1l6-2c0.33-.667.67-1.333,1-2h2c0.67-1,1.33-2,2-3h2c1.33-1.667,2.67-3.334,4-5l9-8v-2l3-2v-2c0.67-.333,1.33-0.667,2-1v-2c0.67-.333,1.33-0.667,2-1,0.67-2,1.33-4,2-6h1v-2h1c4.66-10.52,7.23-30.954,3-44v-4h-1v-3h-1v-2h-1v-4c-0.67-.333-1.33-0.667-2-1v-3c-0.67-.333-1.33-0.667-2-1-0.67-2-1.33-4-2-6l-3-2v-2c-0.67-.333-1.33-0.667-2-1v-2c-1.33-1-2.67-2-4-3q-3.495-4-7-8h-2l-3-4h-2c-0.33-.667-0.67-1.333-1-2l-6-2C1297.86,813.771,1282.67,809.927,1261,810ZM852,1002c4.344-1.22,3.414-3.181,6-5h2q0.5-1,1-2l4-1v-1l6-2v-1h4v-1h3v-1l12-1v1h9v1h2v1l7,1v1h2v1h2q0.5,1,1,2l4,1,2,3h2c1.333,1.67,2.667,3.33,4,5,0.666,0.33,1.333.67,2,1v2c1,0.67,2,1.33,3,2v2c0.667,0.33,1.333.67,2,1,0.333,1.33.667,2.67,1,4,0.667,0.33,1.333.67,2,1v3h1v2h1l1,7h1v3h1v21h-1v3h-1c-0.333,2.67-.667,5.33-1,8h-1q-1,3-2,6h-1c-0.333,1.33-.667,2.67-1,4-1,.67-2,1.33-3,2v2l-4,3q-0.5,1.5-1,3c-1,.33-2,0.67-3,1-1,1.33-2,2.67-3,4-1.333.33-2.667,0.67-4,1-0.333.67-.667,1.33-1,2h-2v1c-1.333.33-2.667,0.67-4,1v1c-2.333.33-4.667,0.67-7,1v1h-4v1c-7.024,2.08-19.143-1.46-23-3h-3v-1h-2v-1h-3c-0.333-.67-0.667-1.33-1-2-1.333-.33-2.667-0.67-4-1l-2-3h-2l-5-6c-0.667-.33-1.333-0.67-2-1v-2c-1-.67-2-1.33-3-2v-2c-0.667-.33-1.333-0.67-2-1v-2h-1v-2h-1q-1-3-2-6h-1v-4h-1v-4h-1v-5h-1c-1.633-5.71,1.55-23.35,3-27h1v-2h1c0.333-1.67.667-3.33,1-5,0.667-.33,1.333-0.67,2-1,0.333-1.33.667-2.67,1-4,0.667-.33,1.333-0.67,2-1v-2C848.827,1005.41,850.773,1006.34,852,1002Zm99,621c3.307,0.9,4.668,3.1,7,5v1c1.333,0.33,2.667.67,4,1,0.333,0.67.667,1.33,1,2h2v1c1.333,0.33,2.667.67,4,1v1h4v1h3v1h6v1h61c31.87,0,71.8,3.96,91-9,1-1.33,2-2.67,3-4h2c0.33-.67.67-1.33,1-2,1.33-1,2.67-2,4-3v-2c1-.67,2-1.33,3-2v-2c0.67-.33,1.33-0.67,2-1v-2h1v-2h1c0.67-2,1.33-4,2-6h1v-4h1v-4h1v-4h1V1472H936c-2.9,7.94-1,25.85-1,36v79h1v7h1v3h1v5h1v2h1c0.333,1.67.667,3.33,1,5,0.667,0.33,1.333.67,2,1,0.333,1.33.667,2.67,1,4,0.667,0.33,1.333.67,2,1v2C947.824,1619.58,949.782,1618.66,951,1623Z"/>
</svg>
